<?xml version="1.0" standalone="no"?>
<!DOCTYPE svg PUBLIC "-//W3C//DTD SVG 20010904//EN"
 "http://www.w3.org/TR/2001/REC-SVG-20010904/DTD/svg10.dtd">
<svg version="1.0" xmlns="http://www.w3.org/2000/svg"
 width="500.000000pt" height="500.000000pt" viewBox="0 0 500.000000 500.000000"
 preserveAspectRatio="xMidYMid meet">
<metadata>
Created by potrace 1.14, written by Peter Selinger 2001-2017
</metadata>
<g transform="translate(0.000000,500.000000) scale(0.100000,-0.100000)"
fill="#000000" stroke="none">
<path d="M1870 4781 c-270 -37 -612 -325 -764 -644 -71 -149 -108 -296 -148
-591 -18 -138 -22 -214 -23 -536 -1 -348 -3 -380 -22 -450 -52 -186 -140 -380
-268 -590 -171 -280 -187 -435 -56 -553 76 -68 142 -92 409 -148 394 -81 587
-142 886 -279 421 -192 764 -304 1071 -349 240 -35 592 -38 717 -6 222 58 347
207 387 460 11 71 28 335 56 860 22 413 45 556 145 925 59 218 69 310 46 420
-39 186 -137 303 -396 475 -201 134 -317 190 -665 320 -213 80 -395 188 -698
416 -219 166 -321 225 -432 253 -79 19 -177 26 -245 17z"/>
</g>
</svg>
